<?xml version="1.0" encoding="UTF-8"?>
<svg id="Layer_1" xmlns="http://www.w3.org/2000/svg" version="1.1" viewBox="0 0 58.33 50.97">
  <!-- Generator: Adobe Illustrator 30.6.0, SVG Export Plug-In . SVG Version: 2.1.4 Build 109)  -->
  <path d="M25.66,37.65c-.17.2,1.07,1.42,2.58,1.35.1.16-.66.73-.96.66l-2.44-.52-.59,2.97c-.02.11-.16.38-.24.39l-.29.03c-.12.01-.05-.32,0-.45l.73-1.87c.36-.91.25-1.77-.28-2.61l-.62-.97c-.02-.4-.14-.85-.37-1.14l-.08-1.27-4.86,6.06c.3.82.49,1.63-.07,2.42,1.2,2.5,3.28,3.46,2.37,6.12-.57.52-.79,1.23-1.12,2.14-.23-1.41.78-2.39.54-2.98-.13-.34-.64-.89-.79-1.23-.27-.58-.34-1.2-1.04-1.46-1.22-.46-.59-1.87-1.87-2.67l-1.56,1.38,1.14-1.6-.16-1.68c-.12-1.25-.08-2.36-.03-3.69.04-.96.52-2.15.66-3.2-.3-.55-.57-1.02-.37-1.51s.79-1.06,1.3-1.11l2.96-.24c.92-.07,1.78-.48,2.47-1.17l-1.27-1.68c-.27-.35-1.4-.48-1.75-.45l-.6,1.15c-.13.25-.9.22-1.19.23l-2.65.15c-1.27.07-3.06.53-3.99,1.07l-.53.16c-.11.03-.03.35,0,.49-.82,1.6-1,3.23-.86,5.06l-.56,1.66c.45.77.7,1.27.97,2.11.12.38-.52,1.08-.9,1.22.36.45.53.93.55,1.73.4.54,1.13,1.37,1.68,1.87.45.41.54.56.68,1.12.21.88.23,1.79-.75,2.09.4-1.1.06-1.98-.8-2.55l-1.49-1c-.47-1.08-.73-2.45-1.34-3.31-.72-1.02-.93-1.44-.76-2.68.37-2.58.84-5.16,1.74-7.68.28-.8.04-1.16-.42-1.8-.14-.88,1.16-1.91,2.11-1.76l2.94.46c-.76-1.18-1.13-2-1.45-3.47l-1.88.1c-.5.03-1.34-.03-1.77.08-1.75.46-2.34,2.07-3.34,3.32l-1.49,1.87c-.09.11-.43.42-.55.34l-.44-.3c-.33,1.37-1.68,1.49-1.07,3.11-.52.9-.88,1.75-.21,3.01-.73-.18-1.04-.73-1.1-1.44l-.17-1.83c.53-.61.71-1.42.69-2.21,0-.37.64-.86.78-1.16.12-.25-.02-.91.08-1.16s.68-.45.9-.7l1.96-2.25c.11-.12.02-.53.13-.59l.56-.29,2.06-1.69.66-1.37-5.82-.68.14-.22,9.96.81c.46-1.14.73-2.67.19-3.73-.69-1.36-2.25-1.87-3.62-2.46-1.45.28-2.6,1.17-3.44,2.44l-1.83,1.24-.2-.33c-.04-.06-.21-.32-.23-.25l-.17.58c-.66.47-1.09,1.05-1.07,1.89-.72.51-1.03,1.17-.6,2.24-1.03-.43-.72-1.25-.72-2.01s.31-1.03.75-1.64l1.15-1.6c.27-.38.56-.76.9-1.02l3.4-2.65c.1-.16.26-.48.39-.42l.91.44.1-.88c.03-.25.65-.52.91-.57,2.23-.42,2.12,1.72,3.49,2.73.61-1.8,1.19-3.01,2.07-4.57.21-.38-.53-1.04-.8-1.39-.36-.46-.85-1-1.79-.85.41-1.14.19-2.3-1.04-2.88l.04.77c-.75-.47-1.02-.91-.73-1.57l-.6-.76c.45.34.96.6,1.31.74.41.49,1.02,1.18,1.6,1.76,1.05,1.07,1.12,2.54,2.64,3.42C19.44,3.62,26.48.7,33.52,2.66l.2-.24c.04-.05.24-.21.25-.15l.07.56c3.92,1.38,7.22,3.89,9.59,7.35,1.38-1.56,2.73-2.68,4.3-3.69l.49-.7c.13-.19.8.1,1.12.21-.41.42-.85.96-1.22,1.53-.53.84-1.09.97-2.01,1.31-.76.28-1.71,1.31-2.3,1.9.83,1.48,1.31,2.54,1.91,4.27,1.28-1.07,1.35-2.75,2.66-3,.62-.12,1.47.11,1.78.59.09.14.1.84.26.79l.7-.24.38-.13s0,.15-.02.33l3.46,2.69c.44.34.64.68.93,1.09l1.1,1.56c.43.61.72.92.84,1.7s.13,1.55-.65,1.93c.24-.7-.04-1.88-.6-2.12-.26-.11-.96.09-1.24.12l-5.05.54.54.69c.12.15.01.55-.02.7,1,.4,1.67,1.1,2.49,1.96l3.33.08.13.18h-3.19s2.15,2.58,2.15,2.58c.18.21.85.42.9.69s-.02.85-.06,1.2c1.56.91.24,2.01,1.57,3.18l-.04,1.49c-.02.84.05,1.75-1.16,1.97.74-1.23.28-2.16-.24-3.03.48-1.66-.83-1.79-.88-3.11l-.64.28c-.15.07-.45-.37-.57-.51l-1.29-1.47c-2.18-3.64-2.94-3.84-7.11-3.69-.42,1.37-.75,2.09-1.47,3.4l2.94-.42c1.12-.16,2.16.85,2.41,1.81l-.74.81c1.42,2.75,2.14,5.45,2.76,8.47.1.49.42,1.28.12,1.69-1.93,2.66-1.3,4.44-3.38,5.36-1,.44-1.4,1.63-.91,2.58-1.07-.33-.97-1.3-.77-2.15.28-1.14,1.46-1.39,2.18-2.83l.5-1.77-.67-.67c-.04-.89.33-1.76.9-2.62l-.67-1.56c.05-2.09-.47-4.12-1.7-5.66-2.03-1.11-4.96-1.47-7.15-1.42-.97.02-1.58-.3-1.79-1.48l-1.97.53-1.11,1.58c2.16,2.4,6.61.61,7.44,2.25.38.75-.01,1.49-.31,1.86l.65,4.77.07,1.92-.03,1.94,1.2,1.37-.06.16-1.34-1.26c-1.59.29-.74,1.83-1.91,2.49-.68.38-.98.87-.98,1.65-.74.53-1.04,1.24-.84,2.34-.36-.14-.73-.7-.71-1.15l.08-1.9,2.22-3.32c-.47-.83-.51-1.74.02-2.56-2.25-2.64-4.56-5.23-6.65-8.06,2.49,2.3,4.54,4.84,6.8,7.29.26-1.66.73-3.69-.36-4.93-1.34-1.51-3.37-2.15-5.18-2.78-.66-.23-.92-.61-1.42-1.41-.21.44-.15,1.21.1,1.72h-.28c-.1,0-.25.24-.27.33l-.5,1.99.97.9c.38.35-.29,3.13-1.37,3.87-.75.51-2.89.74-2.92-.2,1.21.27,2.14-.77,2.89-1.95l.32-.5c.09-.14-.32-.51-.38-.5-.68,1.12-1.71,2.05-2.65,2.24-2.95.6-4.1-1.44-4.36-1.13l-.44.52ZM27.34,3l3.99-.17c-2.2-.22-4.62-.28-6.66.47.84.03,1.77-.27,2.67-.3ZM18.02,15.76c1.87-.03,1.75,2.89,2.09,5.14.2.32,1.12.48,1.43.28.66-1.29,1.78-2.34,2.98-3.13l-.2-.75.53.58c4.02-2.06,9.03-1.02,11.58,2.73.22.33.5.64.74.71,1.29.35.87-1.66,1.79-4.48.49-1.49,2.38-1.43,3.9-.81l.24,1.78.34-.77c.05-.1.18-.22.28-.35-.18-.21-.44-.45-.34-.52l.62-.38c-.37-1.06-1.31-2.31-2.18-3.21-.67.72-1.13,1.09-1.79,1.61-1.12.9-2.12,1.85-3.35,2.61,1.53-1.71,3.08-2.94,4.94-4.53l-2.42-2.1-4.75,7.11-.19-.2,4.62-7.09c-5.96-3.97-13.61-3.79-19.42.03,1.79,2.49,3.43,4.69,4.8,7.2-1.88-2.31-3.45-4.68-5.17-7.04l-1.83,1.52c.83,1.1,1.48,1.79,2.61,2.65l-.76-1.61c.55.52,1.07,1.02,1.31,1.42.21.35.28,1.21.68,1.55l1.98,1.67s.38-.03.44-.01c.06.01.08.11.03.14l-.4.31-4.89-4.01c-.46-.38-.75-1.32-1.53-1.49-1.2.93-2.45,3.34-2.2,3.45l.66.29c-.65,2.66-.7,5.35-.37,7.5.36-2.96-.71-6.2,1.83-7.55l-.76-.22,2.15-.04ZM56.8,19.9c-.51-.95-.61-1.07-1.03-1.49l-.44-.44c-.1-.1-.57.09-.68.01l-1.37-.9c-.87-1.17-1.74-1.94-3.22-2.52-1.29.44-3.07.97-3.88,2.38-.59,1.03-.27,2.67-.04,3.84l7.68-.63,2.98-.24ZM22.43,23.61c.09-2.88,1.98-4.24,4.15-5.58-2.7.05-4.49,2.43-4.89,4.8l.07.72.67.05ZM24.55,24.09c.24-3.15,2.64-4.65,5.74-5.38-3.55-1.17-6.99,1.59-7.19,5.18l1.45.2ZM20.85,24.94l.5-3.55-1.22.02-.05,3.54h.76ZM37.58,24.33c.03.17-.11.64.03.62.16-.02.61-.01.6-.15l-.02-.49-.12-2.95-.83.98.34,1.99ZM26.12,35.45c.18-2.01.44-3.59,1.18-5.5-2.1.38-2.16,3.36-1.18,5.5ZM18.2,39.47l5.67-6.64c.49-.79.59-1.77.11-2.43-.28.6-.58,1.12-1.01,1.27-1.8.62-3.18,1.49-4.74,2.69-.76,1.56-.86,3.51-.03,5.11Z"/>
  <path d="M33.87,1.44l-1.55.7c.37-1.2,1.39-1.65,2.53-2.14-.13.34-.58,1.25-.99,1.44Z"/>
</svg>