<?xml version="1.0" encoding="UTF-8"?>
<svg id="Layer_1" data-name="Layer 1" xmlns="http://www.w3.org/2000/svg" version="1.1" viewBox="0 0 58.3 106.7">
  <defs>
    <style>
      .cls-1 {
        fill: #000;
        stroke-width: 0px;
      }
    </style>
  </defs>
  <path class="cls-1" d="M44,66.3"/>
  <path class="cls-1" d="M44,66.4"/>
  <path class="cls-1" d="M56.8,84.7c0-.4.1-.9,0-1.2,0-.3-.7-.5-.9-.7l-2.2-2.6h-.1s0,0,0-.2c-.8-.9-1.5-1.6-2.5-2,0-.2,0-.6,0-.7l-.3-.4c-.2,0-.3-.2-.4-.3-.2,0-.3-.1-.4-.2l-3.6.3c-.2-1.2-.5-2.8,0-3.8.8-1.4,2.6-1.9,3.9-2.4,1.5.6,2.4,1.3,3.2,2.5l1.4.9c.1,0,.6-.1.7,0l.4.4c.4.4.5.5,1,1.5h0v.3c.5.3.8,1.4.6,2.1.8-.4.8-1.1.7-1.9-.1-.8-.4-1.1-.8-1.7l-1.1-1.6c-.3-.4-.5-.8-.9-1.1l-3.5-2.7v-.3h-.4c0,0-.7.4-.7.4-.2,0-.2-.6-.3-.8-.3-.5-1.2-.7-1.8-.6-1.3.2-1.4,1.9-2.7,3-.6-1.7-1.1-2.8-1.9-4.3l-.4-.6c-2.4-3.5-5.7-6-9.6-7.4h-.2c0-.1-.4-.2-.4-.2-1.3-.4-2.7-.6-4-.6V-10.6h-.8V57.8c-5.3.1-10.3,2.9-13.6,7.4h0c0,.2,0,.3-.2.4h0c-.9,1.7-1.5,2.9-2.1,4.7-1.4-1-1.3-3.1-3.5-2.7-.3,0-.9.3-.9.6v.9c-.1,0-1-.4-1-.4-.1,0-.3.3-.4.4l-3.4,2.7c-.3.3-.6.6-.9,1l-1.2,1.6c-.4.6-.8.9-.8,1.6s-.3,1.6.7,2c-.4-1.1-.1-1.7.6-2.2,0-.8.4-1.4,1.1-1.9l.2-.6.2.2.2.3,1.8-1.2c.8-1.3,2-2.2,3.4-2.4,1.4.6,2.9,1.1,3.6,2.5.5,1.1.3,2.6-.2,3.7l-3.9-.3s-.1,0-.2.2c0,0-.2.1-.4.2h.2l-.7,1.4-2.1,1.7-.6.3c-.1,0,0,.5-.1.6l-2,2.2c-.2.2-.8.5-.9.7-.1.2,0,.9,0,1.2-.1.3-.8.8-.8,1.2,0,.8-.2,1.6-.7,2.2l.2,1.8c0,.7.4,1.3,1.1,1.4-.7-1.3-.3-2.1.2-3-.6-1.6.7-1.7,1.1-3.1l.4.3c0,0,.5-.2.5-.3l1.5-1.9c1-1.2,1.6-2.9,3.3-3.3.4-.1,1.3,0,1.8,0h1.9c.3,1.4.7,2.2,1.5,3.4l-2.9-.5c-.9,0-2.2.9-2.1,1.8.5.6.7,1,.4,1.8-.9,2.5-1.4,5.1-1.7,7.7-.2,1.2,0,1.7.8,2.7.6.9.9,2.2,1.3,3.3l1.5,1c.9.6,1.2,1.5.8,2.5,1-.3,1-1.2.8-2.1,0-.6-.2-.7-.7-1.1-.5-.5-1.3-1.3-1.7-1.9,0-.8-.2-1.3-.5-1.7.4,0,1-.8.9-1.2-.3-.8-.5-1.3-1-2.1l.6-1.7c-.1-1.8,0-3.5.9-5.1,0,0,0-.5,0-.5l.5-.2c.9-.5,2.7-1,4-1.1h2.6c.3-.2,1.1,0,1.2-.4l.6-1.1c.3,0,1.5,0,1.8.5l1.3,1.7c-.7.7-1.5,1.1-2.5,1.2l-3,.2c-.5,0-1.1.6-1.3,1.1s0,1,.4,1.5c-.1,1-.6,2.2-.7,3.2v3.7l.2,1.6c0,0,.2.2.3.3,1.3.8.6,2.2,1.9,2.6.7.3.8.9,1,1.5.2.3.7.9.8,1.2.2.6-.8,1.6-.5,3,.3-.9.5-1.6,1.1-2.1.9-2.7-1.2-3.6-2.4-6.1.6-.8.4-1.6,0-2.4v-.7h0c-.8-1.7-.7-3.6,0-5.2,1.6-1.2,2.9-2.1,4.7-2.7.4-.2.7-.7,1-1.3.5.7.4,1.6,0,2.4l-.9,1.1v.4h.1c0-.1,0,1.1,0,1.1.2.3.3.7.4,1.1l.6,1c.3.5.5,1,.5,1.5h.2l2.4.5c.3,0,1.1-.5,1-.7-1.5,0-2.7-1.1-2.6-1.3l.4-.5c.3-.3,1.4,1.7,4.4,1.1.9-.2,2-1.1,2.6-2.2,0,0,.5.4.4.5l-.3.5c-.8,1.2-1.7,2.2-2.9,2,0,.9,2.2.7,2.9.2,1.1-.7,1.8-3.5,1.4-3.9l-1-.9.5-2s.2-.3.3-.3h.3c-.2-.5-.3-1.3,0-1.7.5.8.8,1.2,1.4,1.4,1.8.6,3.8,1.3,5.2,2.8,1.1,1.2.6,3.3.4,4.9v.3c0,.1,0,.2-.2.4h0c-.5.9-.5,1.8,0,2.7l-2.2,3.3v1.9c0,.5.3,1,.6,1.2-.2-1.1,0-1.8.8-2.3,0-.8.3-1.3,1-1.7,1.1-.6.4-2.1,1.8-2.5,0,0,0,0,0-.2,0,0,.1,0,.2,0v-3.8l-.7-4.8c.3-.4.7-1.1.3-1.9-.8-1.6-5.3.2-7.4-2.2l1.1-1.6,2-.5c.2,1.2.8,1.5,1.8,1.5,2.2,0,5.1.3,7.2,1.4,1.2,1.5,1.8,3.6,1.7,5.7l.7,1.6c-.6.9-.9,1.7-.9,2.6l.7.7-.5,1.8c-.7,1.4-1.9,1.7-2.2,2.8-.2.8-.3,1.8.8,2.2-.5-1,0-2.1.9-2.6,2.1-.9,1.4-2.7,3.4-5.4.3-.4,0-1.2-.1-1.7-.6-3-1.3-5.7-2.8-8.5l.7-.8c-.2-1-1.3-2-2.4-1.8l-2.9.4c.7-1.3,1.1-2,1.5-3.4,4.2-.2,4.9,0,7.1,3.7l1.3,1.5c.1.1.4.6.6.5l.6-.3c0,1.3,1.4,1.4.9,3.1.5.9,1,1.8.2,3,1.2-.2,1.1-1.1,1.2-2v-1.5c-1.3-1.2,0-2.3-1.5-3.2ZM20.8,80.7h-.8v-3.5h1.3l-.5,3.5ZM22.3,79.4h-.6v-.7c.3-2.4,2.1-4.8,4.8-4.8-2.2,1.3-4,2.7-4.2,5.5ZM26.1,91.2c-1-2.1-.9-5.1,1.2-5.5-.7,1.9-1,3.5-1.2,5.5ZM24.5,79.8l-1.5-.2c.2-3.6,3.6-6.3,7.2-5.2-3.1.7-5.5,2.2-5.7,5.4ZM37.6,80.7c0,0,0-.4,0-.6l-.3-2,.8-1v3c.1,0,.1.5.1.5,0,0-.4,0-.6,0ZM43.3,72.1s.2.2.3.4c0,0-.1.1-.2.3l-.3.8-.2-1.8c-1.5-.6-3.4-.7-3.9.8-.9,2.8-.5,4.8-1.8,4.5-.2,0-.5-.4-.7-.7-2.5-3.8-7.6-4.8-11.6-2.7h-.3c-1.2.9-2.3,2-3,3.3-.3.2-1.2,0-1.4-.3-.3-2.2-.2-5.2-2.1-5.1h-1s0,0-.2.2h-.2c-2.4,1.4-1.4,4.6-1.8,7.5-.3-2.1-.3-4.8.4-7.5l-.7-.3c-.2,0,1-2.5,2.2-3.5,0-.2.2-.4.4-.5h0l1.8-1.5h0c.1.1.2,0,.3,0,5.8-3.8,13.5-4,19.4,0,.1,0,.2.2.3.3l2.4,2s.2.2.2.3c.9.9,1.8,2.2,2.2,3.2l-.6.4Z"/>
</svg>