<?xml version="1.0" encoding="UTF-8"?>
<svg id="Layer_1" data-name="Layer 1" xmlns="http://www.w3.org/2000/svg" version="1.1" viewBox="0 0 68.8 68.8">
  <defs>
    <style>
      .cls-1 {
        fill: #000;
      }

      .cls-1, .cls-2 {
        stroke-width: 0px;
      }

      .cls-2 {
        fill: #cdd6f4;
      }
    </style>
  </defs>
  <path class="cls-1" d="M49.3,18.4"/>
  <path class="cls-1" d="M49.3,18.5"/>
  <path class="cls-2" d="M34.2,7.9c-6.3.2-12.4,3.5-16.3,8.7h-.1c0,.2-.1.4-.2.5h-.1c-1.1,2-1.8,3.4-2.5,5.5-1.6-1.2-1.5-3.6-4.1-3.2-.4,0-1.1.4-1.1.7v1.1c-.1,0-1.2-.5-1.2-.5-.1,0-.4.4-.5.5l-4,3.2c-.4.4-.7.7-1.1,1.2l-1.4,1.9c-.5.7-.9,1.1-.9,1.9s-.4,1.9.8,2.4c-.5-1.3-.1-2,.7-2.6,0-.9.5-1.6,1.3-2.2l.2-.7.2.2.2.4,2.1-1.4c.9-1.5,2.4-2.6,4-2.8,1.6.7,3.4,1.3,4.2,2.9.6,1.3.4,3.1-.2,4.4l-4.6-.4s-.1.1-.2.2c-.1,0-.2.1-.5.2h.2l-.8,1.6-2.5,2-.7.4c-.1,0,0,.6-.1.7l-2.4,2.6c-.2.2-.9.6-1.1.8-.1.2,0,1.1,0,1.4-.1.4-.9.9-.9,1.4,0,.9-.2,1.9-.8,2.6l.2,2.1c0,.8.5,1.5,1.3,1.6-.8-1.5-.4-2.5.2-3.5-.7-1.9.8-2,1.3-3.6l.5.4c.1,0,.6-.2.6-.4l1.8-2.2c1.2-1.4,1.9-3.4,3.9-3.9.5-.1,1.5,0,2.1,0h2.2c.4,1.6.8,2.6,1.8,4l-3.4-.6c-1.1-.1-2.6,1.1-2.5,2.1.6.7.8,1.2.5,2.1-1.1,2.9-1.6,6-2,9.1-.2,1.4,0,2,.9,3.2.7,1.1,1.1,2.6,1.5,3.9l1.8,1.2c1.1.7,1.4,1.8.9,2.9,1.2-.4,1.2-1.4.9-2.5-.1-.7-.2-.8-.8-1.3-.6-.6-1.5-1.5-2-2.2,0-.9-.2-1.5-.6-2,.5-.1,1.2-.9,1.1-1.4-.4-.9-.6-1.5-1.2-2.5l.7-2c-.1-2.1,0-4.1,1.1-6,0-.1-.1-.6,0-.6l.6-.2c1.1-.6,3.2-1.2,4.7-1.3h3.1c.4-.2,1.3-.1,1.4-.5l.7-1.3c.4,0,1.8,0,2.1.6l1.5,2c-.8.8-1.8,1.3-2.9,1.4l-3.5.2c-.6,0-1.3.7-1.5,1.3s0,1.2.5,1.8c-.1,1.2-.7,2.6-.8,3.8v4.4l.2,1.9c.1,0,.2.2.4.4,1.5.9.7,2.6,2.2,3.1.8.4.9,1.1,1.2,1.8.2.4.8,1.1.9,1.4.2.7-.9,1.9-.6,3.5.4-1.1.6-1.9,1.3-2.5,1.1-3.2-1.4-4.2-2.8-7.2.7-.9.5-1.9,0-2.8v-.8h0c-.9-2-.8-4.2,0-6.1,1.9-1.4,3.4-2.5,5.5-3.2.5-.2.8-.8,1.2-1.5.6.8.5,1.9-.1,2.8l-1.1,1.3v.5h.1c0-.1,0,1.3,0,1.3.2.4.4.8.5,1.3l.7,1.2c.4.6.6,1.2.6,1.8h.2l2.8.6c.4,0,1.3-.6,1.2-.8-1.8,0-3.2-1.3-3.1-1.5l.5-.6c.4-.4,1.6,2,5.2,1.3,1.1-.2,2.4-1.3,3.1-2.6,0,0,.6.5.5.6l-.4.6c-.9,1.4-2,2.6-3.4,2.4,0,1.1,2.6.8,3.4.2,1.3-.8,2.1-4.1,1.6-4.6l-1.2-1.1.6-2.4s.2-.4.4-.4h.4c-.2-.6-.4-1.5,0-2,.6.9.9,1.4,1.6,1.6,2.1.7,4.5,1.5,6.1,3.3,1.3,1.4.7,3.9.5,5.8v.4c0,.1,0,.2-.2.5h0c-.6,1.1-.6,2.1,0,3.2l-2.6,3.9v2.2c0,.6.4,1.2.7,1.4-.2-1.3,0-2.1.9-2.7,0-.9.4-1.5,1.2-2,1.3-.7.5-2.5,2.1-2.9,0,0,0-.1.1-.2,0,0,.1,0,.2-.1v-4.5l-.8-5.7c.4-.5.8-1.3.4-2.2-.9-1.9-6.2.2-8.7-2.6l1.3-1.9,2.4-.6c.2,1.4.9,1.8,2.1,1.8,2.6,0,6,.4,8.5,1.6,1.4,1.8,2.1,4.2,2,6.7l.8,1.9c-.7,1.1-1.1,2-1.1,3.1l.8.8-.6,2.1c-.8,1.6-2.2,2-2.6,3.3-.2.9-.4,2.1.9,2.6-.6-1.2,0-2.5,1.1-3.1,2.5-1.1,1.6-3.2,4-6.4.4-.5,0-1.4-.1-2-.7-3.5-1.5-6.7-3.3-10l.8-.9c-.2-1.2-1.5-2.4-2.8-2.1l-3.4.5c.8-1.5,1.3-2.4,1.8-4,4.9-.2,5.8,0,8.4,4.4l1.5,1.8c.1.1.5.7.7.6l.7-.4c0,1.5,1.6,1.6,1.1,3.6.6,1.1,1.2,2.1.2,3.5,1.4-.2,1.3-1.3,1.4-2.4v-1.8c-1.5-1.4,0-2.7-1.8-3.8,0-.5.1-1.1,0-1.4,0-.4-.8-.6-1.1-.8l-2.6-3.1h-.1s0-.1-.1-.2c-.9-1.1-1.8-1.9-2.9-2.4,0-.2.1-.7,0-.8l-.4-.5c-.2,0-.4-.2-.5-.4-.2,0-.4-.1-.5-.2l-4.2.4c-.2-1.4-.6-3.3,0-4.5.9-1.6,3.1-2.2,4.6-2.8,1.8.7,2.8,1.5,3.8,2.9l1.6,1.1c.1,0,.7-.1.8,0l.5.5c.5.5.6.6,1.2,1.8h0v.4c.6.4.9,1.6.7,2.5.9-.5.9-1.3.8-2.2-.1-.9-.5-1.3-.9-2l-1.3-1.9c-.4-.5-.6-.9-1.1-1.3l-4.1-3.2v-.4h-.5c0,.1-.8.5-.8.5-.2,0-.2-.7-.4-.9-.4-.6-1.4-.8-2.1-.7-1.5.2-1.6,2.2-3.2,3.5-.7-2-1.3-3.3-2.2-5.1l-.5-.7c-2.8-4.1-6.7-7.1-11.3-8.7h-.2c0-.1-.5-.2-.5-.2-1.6-.4-3.4-.7-4.9-.7M24.6,34.9h-.9v-4.1h1.5l-.6,4.1ZM26.4,33.4h-.7v-.8c.4-2.8,2.5-5.7,5.7-5.7-2.6,1.5-4.8,3.1-4.9,6.5ZM30.8,47.2c-1.2-2.5-1.1-6,1.4-6.5-.8,2.2-1.2,4.1-1.4,6.5ZM29,33.8l-1.8-.2c.2-4.2,4.2-7.4,8.5-6.1-3.6.8-6.5,2.6-6.7,6.4ZM44.4,34.9c-.1,0,0-.5,0-.7l-.4-2.4.9-1.2v3.5c.1,0,.1.6.1.6,0,.1-.5.1-.7.1ZM51.4,25.3c0,0-.1.2-.2.3l-.4.9-.2-2.1c-1.8-.7-4-.8-4.6.9-1.1,3.3-.6,5.7-2.1,5.3-.2,0-.6-.5-.8-.8-2.9-4.5-8.9-5.7-13.7-3.2h-.4c-1.4,1.1-2.7,2.4-3.5,3.9-.4.2-1.4,0-1.6-.4-.4-2.6-.2-6.1-2.5-6h-1.2s-.1.1-.2.2h-.2c-2.8,1.6-1.6,5.4-2.1,8.8-.4-2.5-.4-5.7.5-8.8l-.8-.4c-.2-.1,1.2-2.9,2.6-4.1,0-.2.2-.5.5-.6h.1l2.1-1.8h0c.1.1.2-.1.4-.1,6.8-4.5,15.9-4.7,22.8,0,.1,0,.2.2.4.4l2.8,2.4s.2.2.2.4c1.1,1.1,2.1,2.6,2.6,3.8l-.7.5s.2.3.3.5Z"/>
  <rect class="cls-2" x="34.3" width=".7" height="27"/>
</svg>